# xmcd
#
# Track frame offsets:
# 150
# 27498
# 41434
# 79371
# 100741
# 111373
# 139284
# 160958
#
# Disc length: 2658 seconds
#
#
# Revision: 1
# Processed by: cddbd v1.5.1PL0 Copyright (c) Steve Scherf et al.
# Submitted via: FreeRIP 2.80 
#
DISCID=690a6008
DTITLE=Lonnie Liston Smith - Live!
DYEAR=1977
DGENRE=Jazz
TTITLE0=Sorceress
TTITLE1=Prelude
TTITLE2=Expansions
TTITLE3=My Love
TTITLE4=Visions Of A New World (Phase One)
TTITLE5=Visions Of A New World (Phase Two)
TTITLE6=Watercolors
TTITLE7=Sunset
EXTD=YEAR: 1977
EXTT0=
EXTT1=
EXTT2=
EXTT3=
EXTT4=
EXTT5=
EXTT6=
EXTT7=
PLAYORDER=
